<svg width="45" height="5" viewBox="0 0 45 5" fill="none" xmlns="http://www.w3.org/2000/svg">
<g id="Layer_1">
<path id="Vector" d="M2.57877 0.736328C2.021 0.736328 1.59604 0.922251 1.29059 1.30738C1.01171 1.65266 0.878906 2.09091 0.878906 2.62212C0.878906 3.15333 1.01171 3.59157 1.27731 3.92358C1.58276 4.29542 2.00773 4.48135 2.56549 4.48135C2.95062 4.48135 3.28263 4.3751 3.56151 4.14934C3.85367 3.92358 4.0396 3.59157 4.13256 3.16661H3.73415C3.66775 3.48533 3.52167 3.71109 3.30919 3.88374C3.10998 4.02982 2.87094 4.1095 2.57877 4.1095C2.15381 4.1095 1.83508 3.96342 1.60932 3.68453C1.39683 3.41893 1.29059 3.06036 1.29059 2.60884C1.29059 2.15731 1.39683 1.79875 1.60932 1.53314C1.83508 1.24098 2.15381 1.09489 2.57877 1.09489C2.85766 1.09489 3.0967 1.16129 3.2959 1.2941C3.49511 1.44018 3.62791 1.63938 3.68103 1.90499H4.07944C4.02632 1.54642 3.86695 1.25426 3.58807 1.04177C3.32246 0.842569 2.97718 0.736328 2.57877 0.736328ZM7.0542 0.802728L5.63322 4.40167H6.07147L6.45659 3.39237H8.11662L8.50175 4.40167H8.95328L7.53229 0.802728H7.0542ZM6.60268 3.04708L7.29325 1.24097H7.31981L7.9971 3.04708H6.60268ZM10.6133 0.802728V4.40167H11.025V2.84788H12.114C12.3397 2.84788 12.5124 2.88772 12.6319 2.98068C12.7647 3.07365 12.8444 3.23301 12.8577 3.44549L12.8975 3.92358C12.9108 4.12278 12.9639 4.28214 13.0436 4.40167H13.4951C13.3889 4.26886 13.3225 4.09622 13.3092 3.87046L13.2561 3.31269C13.2162 2.95412 13.0303 2.72836 12.685 2.66196V2.64868C12.8975 2.59556 13.0569 2.50259 13.1764 2.32995C13.2826 2.17059 13.349 1.99795 13.349 1.79874C13.349 1.46674 13.2428 1.21441 13.0303 1.04177C12.8178 0.86913 12.5389 0.789448 12.1804 0.789448H10.6133V0.802728ZM11.0383 1.16129H12.1272C12.4061 1.16129 12.6053 1.21441 12.7381 1.33394C12.8577 1.44018 12.9241 1.61282 12.9241 1.8253C12.9241 2.03779 12.8577 2.19715 12.7381 2.31667C12.5921 2.4362 12.3928 2.5026 12.1272 2.5026H11.0383V1.16129ZM15.0489 0.802728V1.16129H16.3238V4.40167H16.7355V1.16129H18.0104V0.802728H15.0489ZM20.9586 0.736328C20.6 0.736328 20.2946 0.855851 20.0688 1.09489C19.8431 1.33394 19.7368 1.65266 19.7368 2.06435H20.1485C20.1485 1.74562 20.2282 1.50658 20.3743 1.34722C20.5071 1.17457 20.693 1.09489 20.9453 1.09489C21.1844 1.09489 21.3703 1.16129 21.4898 1.28082C21.6226 1.40034 21.689 1.57298 21.689 1.78546C21.689 2.02451 21.596 2.23699 21.4101 2.43619C21.3172 2.54243 21.1312 2.68852 20.8391 2.88772C20.4539 3.15332 20.2016 3.36581 20.0555 3.52517C19.8165 3.79078 19.697 4.09622 19.697 4.41495H22.1007V4.0431H20.2149C20.2813 3.80406 20.5469 3.52517 20.9984 3.21973C21.3703 2.9674 21.6226 2.7682 21.7421 2.6354C21.9679 2.38307 22.1007 2.10419 22.1007 1.78546C22.1007 1.46674 21.9944 1.21441 21.782 1.02849C21.5695 0.829289 21.2906 0.736328 20.9586 0.736328ZM25.6598 0.802728L23.8404 3.19317V3.59157H25.6465V4.41495H26.0449V3.59157H26.6292V3.25957H26.0449V0.816009H25.6598V0.802728ZM25.6465 1.34722H25.6598V3.25957H24.199L25.6465 1.34722ZM28.7142 2.66196C28.6213 2.66196 28.5549 2.68852 28.5017 2.75492C28.4353 2.82132 28.4088 2.88772 28.4088 2.98068C28.4088 3.07365 28.4353 3.14005 28.5017 3.19317C28.5549 3.25957 28.6346 3.28613 28.7142 3.28613C28.7939 3.28613 28.8736 3.25957 28.9267 3.19317C28.9931 3.12677 29.0197 3.06036 29.0197 2.98068C29.0197 2.88772 28.9931 2.82132 28.9267 2.75492C28.8736 2.7018 28.7939 2.66196 28.7142 2.66196ZM32.6053 0.736328C32.0476 0.736328 31.6226 0.922251 31.3172 1.30738C31.0383 1.65266 30.9055 2.09091 30.9055 2.62212C30.9055 3.15333 31.0383 3.59157 31.3039 3.92358C31.596 4.29542 32.0343 4.48135 32.5921 4.48135C32.9772 4.48135 33.3092 4.3751 33.5881 4.14934C33.8802 3.92358 34.0662 3.59157 34.1591 3.16661H33.7607C33.6943 3.48533 33.5482 3.71109 33.3357 3.88374C33.1365 4.02982 32.8975 4.1095 32.6053 4.1095C32.1804 4.1095 31.8616 3.96342 31.6359 3.68453C31.4234 3.41893 31.3172 3.06036 31.3172 2.60884C31.3172 2.15731 31.4234 1.79875 31.6359 1.53314C31.8616 1.24098 32.1804 1.09489 32.6053 1.09489C32.8842 1.09489 33.1233 1.16129 33.3225 1.2941C33.5217 1.44018 33.6545 1.63938 33.7076 1.90499H34.106C34.0529 1.54642 33.8935 1.25426 33.6146 1.04177C33.3357 0.842569 33.0037 0.736328 32.6053 0.736328ZM37.5987 0.736328C37.0542 0.736328 36.6292 0.922251 36.3238 1.28082C36.0316 1.6261 35.8855 2.06435 35.8855 2.60884C35.8855 3.15333 36.0316 3.59157 36.3238 3.93686C36.6425 4.29542 37.0542 4.48135 37.5987 4.48135C38.1432 4.48135 38.5681 4.29542 38.8869 3.93686C39.179 3.59157 39.3251 3.15333 39.3251 2.60884C39.3251 2.06435 39.179 1.61282 38.8869 1.26754C38.5681 0.90897 38.1299 0.736328 37.5987 0.736328ZM37.5987 1.10817C38.0104 1.10817 38.3291 1.24098 38.5682 1.51986C38.7939 1.79874 38.9002 2.15731 38.9002 2.60884C38.9002 3.06036 38.7806 3.41893 38.5682 3.69781C38.3291 3.9767 38.0104 4.1095 37.5987 4.1095C37.187 4.1095 36.855 3.96342 36.6292 3.68453C36.4035 3.40565 36.2972 3.06036 36.2972 2.60884C36.2972 2.15731 36.4035 1.79875 36.6292 1.53314C36.855 1.24098 37.187 1.10817 37.5987 1.10817ZM41.1976 0.802728V4.40167H41.6093V1.53314H41.6226L42.8709 4.40167H43.2428L44.4911 1.53314H44.5044V4.40167H44.9161V0.802728H44.3982L43.0569 3.87046H43.0436L41.7023 0.802728H41.1976Z" fill="white"/>
</g>
</svg>
